<?xml version="1.0" encoding="UTF-8" standalone="no"?>
<!DOCTYPE svg PUBLIC "-//W3C//DTD SVG 1.1//EN" "http://www.w3.org/Graphics/SVG/1.1/DTD/svg11.dtd">
<svg width="100%" height="100%" viewBox="0 0 2000 2000" version="1.1" xmlns="http://www.w3.org/2000/svg" xmlns:xlink="http://www.w3.org/1999/xlink" xml:space="preserve" xmlns:serif="http://www.serif.com/" style="fill-rule:evenodd;clip-rule:evenodd;stroke-linejoin:round;stroke-miterlimit:2;">
    <g transform="matrix(1,0,0,1,693,363.451138)">
        <g transform="matrix(1400,0,0,1400,1238.671875,1029.492188)">
        </g>
        <text x="0px" y="1029.492px" style="font-family:'SFPro-RegularItalic', 'SF Pro';font-style:italic;font-size:1400px;">􀑪</text>
    </g>
    <g transform="matrix(-14.585606,-11.241544,11.241544,-14.585606,654.905335,1122.754154)">
        <g transform="matrix(1,0,0,1,-33.333333,-33.333333)">
            <g transform="matrix(4.166667,0,0,4.166667,0,0)">
                <g transform="matrix(1,0,0,1,4,0)">
                    <path d="M2.696,15.99C2.453,15.99 2.219,15.86 2.101,15.636C1.932,15.317 2.063,14.926 2.391,14.764C5.01,13.468 6.637,10.879 6.637,8.008C6.637,5.133 5.008,2.543 2.384,1.248C2.056,1.086 1.924,0.695 2.091,0.376C2.258,0.057 2.658,-0.071 2.99,0.092C6.062,1.609 7.972,4.642 7.972,8.008C7.972,11.368 6.065,14.401 2.997,15.92C2.902,15.968 2.798,15.99 2.696,15.99Z" style="fill:rgb(67,67,67);"/>
                    <path d="M1.13,13.93C0.89,13.93 0.673,13.797 0.563,13.582C0.494,13.445 0.478,13.287 0.521,13.14C0.569,12.972 0.682,12.834 0.839,12.752C2.612,11.848 3.781,10.036 3.781,8.023C3.781,6.009 2.609,4.195 0.833,3.29C0.677,3.211 0.563,3.074 0.516,2.908C0.472,2.758 0.488,2.6 0.557,2.461C0.665,2.248 0.883,2.115 1.124,2.115C1.226,2.115 1.324,2.139 1.415,2.184C3.614,3.306 4.981,5.542 4.981,8.023C4.981,10.502 3.616,12.737 1.422,13.857C1.329,13.905 1.231,13.93 1.13,13.93Z" style="fill:rgb(67,67,67);"/>
                    <path d="M0.173,11.019C-0.033,11.019 -0.227,10.879 -0.318,10.663C-0.459,10.343 -0.35,9.95 -0.077,9.784C0.481,9.45 0.826,8.786 0.826,8.052C0.826,7.317 0.479,6.652 -0.078,6.318C-0.35,6.154 -0.46,5.76 -0.322,5.441C-0.226,5.22 -0.038,5.084 0.171,5.084C0.259,5.084 0.344,5.107 0.423,5.154C1.355,5.713 1.934,6.824 1.934,8.052C1.934,9.28 1.355,10.39 0.424,10.948C0.346,10.993 0.259,11.019 0.173,11.019Z" style="fill:rgb(67,67,67);"/>
                </g>
            </g>
        </g>
    </g>
</svg>
